<svg width="128" height="150" viewBox="0 0 128 150" fill="none" xmlns="http://www.w3.org/2000/svg">
<path d="M64 150C97 130 120 109 120 65V28L64 0L8 28V65C8 109 31 130 64 150Z" fill="#A64C2E"></path>
<path d="M64 141C93 123 112 103 112 65V33L64 10L16 33V65C16 103 35 123 64 141Z" fill="#C66A43"></path>
<circle cx="64" cy="75" r="33" stroke="#F3DFC8" stroke-width="6"></circle>
<circle cx="64" cy="75" r="10" fill="#F3DFC8"></circle>
<circle cx="92" cy="75" r="5" fill="#F3DFC8"></circle>
<circle cx="64" cy="47" r="5" fill="#F3DFC8"></circle>
<circle cx="42" cy="65" r="5" fill="#F3DFC8"></circle>
<circle cx="75" cy="97" r="5" fill="#F3DFC8"></circle>
<rect x="60" y="47" width="8" height="30" rx="2" fill="#F3DFC8"></rect>
<rect x="60" y="73" width="23" height="8" rx="2" fill="#F3DFC8"></rect>
</svg>
